<?xml version="1.0" standalone="no"?>
<!DOCTYPE svg PUBLIC "-//W3C//DTD SVG 20010904//EN"
 "http://www.w3.org/TR/2001/REC-SVG-20010904/DTD/svg10.dtd">
<svg version="1.0" xmlns="http://www.w3.org/2000/svg"
 width="300.000000pt" height="300.000000pt" viewBox="0 0 300.000000 300.000000"
 preserveAspectRatio="xMidYMid meet">
<metadata>
Created by potrace 1.14, written by Peter Selinger 2001-2017
</metadata>
<g transform="translate(0.000000,300.000000) scale(0.100000,-0.100000)"
fill="#000000" stroke="none">
<path d="M2065 2540 c-22 -4 -54 -10 -72 -13 -58 -9 -166 -49 -227 -85 -159
-91 -251 -238 -260 -411 -11 -235 103 -390 353 -481 75 -28 239 -72 307 -84
67 -12 211 -59 257 -84 163 -88 108 -264 -96 -303 -56 -10 -222 -13 -272 -4
-168 32 -324 90 -416 156 -17 12 -31 20 -33 18 -1 -2 -33 -73 -71 -158 l-68
-154 24 -18 c39 -30 179 -95 254 -119 226 -69 500 -85 700 -40 342 77 531 330
469 626 -33 161 -144 272 -345 345 -45 17 -157 48 -248 70 -295 70 -378 109
-402 187 -8 28 -8 49 0 79 28 104 150 156 351 148 137 -4 275 -41 409 -109
l47 -25 62 152 c34 84 62 155 62 159 0 23 -197 101 -325 130 -98 22 -385 33
-460 18z"/>
<path d="M190 2355 l0 -165 307 -2 308 -3 -1 -450 c-1 -401 -3 -456 -18 -503
-32 -96 -98 -148 -197 -155 -114 -9 -210 33 -300 131 l-55 59 -112 -133 c-62
-73 -112 -137 -112 -142 0 -16 81 -96 130 -129 132 -89 263 -127 440 -127 332
0 527 131 607 409 15 54 18 130 21 718 l3 657 -511 0 -510 0 0 -165z"/>
</g>
</svg>
